<?xml version="1.0" encoding="UTF-8"?>
<svg width="23px" height="30px" viewBox="0 0 23 30" version="1.1" xmlns="http://www.w3.org/2000/svg" xmlns:xlink="http://www.w3.org/1999/xlink">
    <title>icon/logo copy</title>
    <g id="Page-1" stroke="none" stroke-width="1" fill="none" fill-rule="evenodd">
        <path d="M12.1982374,28.4096153 L2.24125327,22.1521547 C2.24125327,22.1521547 0,20.7433931 0,23.440897 L0,26.9538537 C0,26.9538537 0,29.9998988 2.96769668,29.9998988 L11.7615697,29.9998988 C11.7615697,30 14.7292664,30 12.1982374,28.4096153 Z M0.000100199091,3.04635194 L0.000100199091,12.1861277 C0.000100199091,12.1861277 0.000100199091,15.2324796 2.51589899,16.8477527 L20.4842012,28.3848297 C20.4842012,28.3848297 23,30 23,26.9539565 L23,17.6635139 C23,17.6635139 23,14.617162 20.4768868,13.013716 L2.52321351,1.60385735 C2.52321351,1.60385735 0.000100199091,-5.55111512e-15 0.000100199091,3.04635194 Z M23,6.40864165 L23,3.04635194 C23,3.04635194 23,0 20.0324036,0 L11.4361231,0 C11.4361231,0 8.468226,0 11.0013592,1.5875051 L20.7570434,7.70026362 C20.7570434,7.70026362 23,9.10614562 23,6.40864165 Z" id="icon/logo-copy" fill="#0C2340" fill-rule="nonzero"></path>
    </g>
</svg>