<?xml version="1.0" encoding="UTF-8" standalone="no"?>
<svg
   width="30"
   height="40"
   viewBox="0 0 30 40"
   version="1.1"
   id="svg48"
   xmlns="http://www.w3.org/2000/svg"
   xmlns:svg="http://www.w3.org/2000/svg"
   xmlns:rdf="http://www.w3.org/1999/02/22-rdf-syntax-ns#"
   xmlns:cc="http://creativecommons.org/ns#"
   xmlns:dc="http://purl.org/dc/elements/1.1/">
  <defs
     id="defs52" />
  <title
     id="title44">icon/logo copy</title>
  <g
     id="Page-1"
     stroke="none"
     stroke-width="1"
     fill="none"
     fill-rule="evenodd">
    <path
       d="M 16.198237,32.409615 6.2412533,26.152155 C 6.2412533,26.152155 4,24.743393 4,27.440897 v 3.512957 c 0,0 0,3.046045 2.9676967,3.046045 H 15.76157 C 15.76157,34 18.729266,34 16.198237,32.409615 Z M 4.0001002,7.0463519 v 9.1397761 c 0,0 0,3.046352 2.5157988,4.661625 L 24.484201,32.38483 C 24.484201,32.38483 27,34 27,30.953956 v -9.290442 c 0,0 0,-3.046352 -2.523113,-4.649798 L 6.5232135,5.6038573 c 0,0 -2.5231133,-1.6038573 -2.5231133,1.4424946 z M 27,10.408642 V 7.0463519 C 27,7.0463519 27,4 24.032404,4 h -8.596281 c 0,0 -2.967897,0 -0.434764,1.5875051 l 9.755684,6.1127589 c 0,0 2.242957,1.405882 2.242957,-1.291622 z"
       id="icon/logo-copy"
       fill="#ffffff"
       fill-rule="nonzero" />
  </g>
  <metadata
     id="metadata308">
    <rdf:RDF>
      <cc:Work
         rdf:about="">
        <dc:title>icon/logo copy</dc:title>
      </cc:Work>
    </rdf:RDF>
  </metadata>
</svg>
